<svg xmlns="http://www.w3.org/2000/svg" xmlns:xlink="http://www.w3.org/1999/xlink" width="500" zoomAndPan="magnify" viewBox="0 0 375 374.999991" height="500" preserveAspectRatio="xMidYMid meet" version="1.0"><defs><g/></defs><rect x="-37.5" width="450" fill="#ffffff" y="-37.499999" height="449.999989" fill-opacity="1"/><rect x="-37.5" width="450" fill="#ffffff" y="-37.499999" height="449.999989" fill-opacity="1"/><rect x="-37.5" width="450" fill="#000000" y="-37.499999" height="449.999989" fill-opacity="1"/><path fill="#ffffff" d="M 159.171875 117.335938 L 142.175781 110.351562 L 156.953125 119.554688 Z M 133.355469 81.910156 C 130.089844 82.46875 127.066406 84.746094 124.609375 82.332031 L 133.820312 79.867188 C 134.539062 77.898438 135.421875 76.019531 136.445312 74.234375 C 141.101562 66.179688 148.753906 60.15625 157.867188 57.59375 C 168.316406 54.652344 179.496094 56.601562 188.308594 62.8125 C 180.855469 65.734375 173.859375 69.585938 167.46875 74.234375 C 166.929688 74.628906 166.386719 75.03125 165.851562 75.433594 C 156.652344 82.429688 148.765625 91.117188 142.652344 101.109375 C 157.683594 89.671875 175.773438 82.972656 194.628906 81.878906 C 191.578125 80.207031 189.355469 77.347656 188.480469 73.980469 C 187.605469 70.613281 188.152344 67.03125 190.003906 64.085938 C 179.347656 48.25 159.761719 41.011719 141.371094 46.101562 C 122.980469 51.191406 109.90625 67.480469 108.914062 86.535156 L 116.125 84.605469 C 115.464844 88.144531 110.953125 87.886719 107.699219 89.511719 C 106.078125 99.6875 110.027344 107.496094 119.550781 112.933594 C 123.75 115.871094 127.53125 119.359375 130.789062 123.308594 C 132.347656 124.425781 134.347656 124.703125 136.15625 124.070312 C 137.957031 123.429688 139.335938 121.949219 139.847656 120.105469 C 139.929688 116.589844 139.292969 111.953125 137.941406 106.175781 C 141.75 97.664062 141.941406 90.761719 138.519531 85.457031 C 136.308594 85.214844 134.375 83.875 133.355469 81.910156 Z M 110.320312 99.242188 C 117.320312 99.226562 123.332031 104.242188 124.570312 111.140625 L 122.25 108.285156 C 120.707031 108.742188 119.03125 108.441406 117.742188 107.476562 C 116.453125 106.5 115.707031 104.976562 115.722656 103.371094 C 114.625 101.257812 112.644531 99.742188 110.320312 99.242188 Z M 131 97.953125 C 131.253906 94.785156 132.789062 91.855469 135.246094 89.832031 C 133.921875 91.207031 133.792969 93.335938 134.949219 94.847656 C 136.464844 95.539062 137.394531 97.113281 137.269531 98.777344 C 137.148438 100.441406 135.996094 101.851562 134.386719 102.3125 L 133.902344 106.648438 C 131.796875 104.265625 130.75 101.128906 131 97.953125 Z M 142.910156 71.960938 C 143.515625 69.714844 144.382812 67.535156 145.492188 65.472656 C 142.964844 67.628906 140.828125 70.214844 139.195312 73.101562 C 140.410156 72.652344 141.648438 72.277344 142.910156 71.960938 Z M 147.839844 70.964844 C 149.21875 66.609375 152.015625 62.78125 155.851562 60.140625 C 150.863281 62.523438 146.847656 66.550781 144.472656 71.542969 C 145.582031 71.292969 146.710938 71.101562 147.839844 70.964844 Z M 153.425781 70.730469 C 155.550781 65.597656 158.972656 61.09375 163.371094 57.664062 C 157.65625 60.480469 153.03125 65.085938 150.175781 70.757812 C 151.253906 70.695312 152.34375 70.6875 153.425781 70.730469 Z M 158.257812 71.242188 C 160.214844 67.292969 163.746094 61.085938 170.472656 59.101562 C 162.636719 59.640625 158.542969 64.988281 155.902344 70.910156 C 156.691406 70.996094 157.476562 71.109375 158.257812 71.242188 Z M 162.828125 72.375 C 164.847656 68.496094 168.242188 63.34375 175.128906 60.960938 C 167.214844 62.246094 164.757812 65.75 160.257812 71.664062 C 161.128906 71.871094 161.984375 72.105469 162.828125 72.375 Z M 166.941406 73.980469 C 170.507812 69.503906 175.199219 66.019531 180.582031 63.890625 C 174.308594 64.613281 168.742188 68.089844 165.328125 73.277344 C 165.867188 73.5 166.410156 73.734375 166.941406 73.980469 Z M 185.820312 85.953125 L 189.035156 87.46875 L 190.472656 86.035156 Z M 180.386719 87.867188 L 185.699219 90.800781 L 187.644531 88.863281 Z M 175.460938 88.914062 L 182.898438 93.605469 L 184.667969 91.835938 Z M 169.816406 90.703125 L 180.167969 96.335938 L 181.886719 94.617188 Z M 167.078125 93.445312 L 177.335938 99.171875 L 178.910156 97.597656 Z M 162.726562 94.609375 L 174.007812 102.488281 L 176.007812 100.496094 Z M 156.238281 95.617188 L 170.136719 106.367188 L 172.472656 104.023438 Z M 150.820312 98.261719 L 166.992188 109.515625 L 169.226562 107.28125 Z M 147.050781 101.917969 L 163.925781 112.582031 L 165.671875 110.835938 Z M 142.695312 105.460938 L 160.578125 115.925781 L 163.078125 113.425781 Z M 142.695312 105.460938 " fill-opacity="1" fill-rule="evenodd"/><path fill="#ffffff" d="M 197.496094 98.867188 L 204.480469 81.871094 L 195.277344 96.648438 Z M 232.917969 73.050781 C 232.355469 69.785156 230.085938 66.761719 232.5 64.304688 L 234.960938 73.515625 C 236.933594 74.234375 238.8125 75.117188 240.589844 76.140625 C 248.65625 80.796875 254.675781 88.449219 257.238281 97.5625 C 260.179688 108.011719 258.230469 119.191406 252.019531 128.003906 C 249.097656 120.550781 245.246094 113.5625 240.597656 107.164062 C 240.199219 106.625 239.800781 106.082031 239.394531 105.546875 C 232.398438 96.347656 223.707031 88.460938 213.722656 82.34375 C 225.160156 97.378906 231.851562 115.46875 232.953125 134.324219 C 234.625 131.269531 237.484375 129.050781 240.851562 128.175781 C 244.21875 127.300781 247.800781 127.847656 250.746094 129.699219 C 266.582031 119.042969 273.820312 99.457031 268.722656 81.066406 C 263.636719 62.675781 247.34375 49.609375 228.292969 48.613281 L 230.222656 55.824219 C 226.683594 55.164062 226.941406 50.648438 225.316406 47.398438 C 215.132812 45.777344 207.332031 49.726562 201.894531 59.25 C 198.957031 63.445312 195.46875 67.226562 191.511719 70.484375 C 190.402344 72.046875 190.121094 74.042969 190.757812 75.851562 C 191.398438 77.652344 192.878906 79.035156 194.722656 79.546875 C 198.230469 79.628906 202.875 78.992188 208.652344 77.640625 C 217.164062 81.453125 224.066406 81.640625 229.371094 78.214844 C 229.617188 76.003906 230.945312 74.066406 232.917969 73.050781 Z M 215.589844 50.015625 C 215.605469 57.023438 210.585938 63.027344 203.691406 64.265625 L 206.546875 61.941406 C 206.082031 60.402344 206.390625 58.726562 207.355469 57.4375 C 208.328125 56.15625 209.855469 55.402344 211.460938 55.417969 C 213.574219 54.316406 215.089844 52.339844 215.589844 50.015625 Z M 216.878906 70.695312 C 220.046875 70.949219 222.976562 72.480469 225 74.941406 C 223.625 73.617188 221.496094 73.488281 219.984375 74.644531 C 219.292969 76.167969 217.71875 77.089844 216.054688 76.972656 C 214.386719 76.84375 212.972656 75.691406 212.519531 74.082031 L 208.183594 73.597656 C 210.5625 71.492188 213.703125 70.445312 216.878906 70.695312 Z M 242.871094 82.605469 C 245.117188 83.210938 247.296875 84.078125 249.351562 85.1875 C 247.203125 82.660156 244.621094 80.523438 241.730469 78.894531 C 242.179688 80.105469 242.554688 81.34375 242.871094 82.605469 Z M 243.867188 87.535156 C 248.222656 88.914062 252.050781 91.710938 254.691406 95.546875 C 252.308594 90.554688 248.28125 86.542969 243.289062 84.167969 C 243.539062 85.277344 243.730469 86.40625 243.867188 87.535156 Z M 244.101562 93.121094 C 249.234375 95.246094 253.738281 98.667969 257.164062 103.066406 C 254.351562 97.351562 249.746094 92.726562 244.074219 89.871094 C 244.128906 90.957031 244.144531 92.039062 244.101562 93.121094 Z M 243.582031 97.953125 C 247.539062 99.910156 253.746094 103.4375 255.730469 110.167969 C 255.1875 102.332031 249.84375 98.246094 243.921875 95.597656 C 243.835938 96.386719 243.722656 97.179688 243.582031 97.953125 Z M 242.457031 102.523438 C 246.335938 104.542969 251.488281 107.9375 253.871094 114.828125 C 252.582031 106.90625 249.082031 104.453125 243.167969 99.953125 C 242.960938 100.824219 242.726562 101.679688 242.457031 102.523438 Z M 240.847656 106.644531 C 245.320312 110.203125 248.8125 114.890625 250.941406 120.277344 C 250.214844 114.003906 246.742188 108.4375 241.554688 105.023438 C 241.332031 105.5625 241.097656 106.105469 240.847656 106.644531 Z M 228.878906 125.511719 L 227.355469 128.730469 L 228.796875 130.167969 Z M 226.964844 120.082031 L 224.023438 125.394531 L 225.96875 127.335938 Z M 225.917969 115.15625 L 221.226562 122.59375 L 222.996094 124.363281 Z M 224.128906 109.511719 L 218.492188 119.863281 L 220.210938 121.582031 Z M 221.382812 106.773438 L 215.660156 117.03125 L 217.234375 118.601562 Z M 220.222656 102.421875 L 212.335938 113.710938 L 214.335938 115.703125 Z M 219.210938 95.933594 L 208.464844 109.832031 L 210.800781 112.171875 Z M 216.570312 90.515625 L 205.316406 106.6875 L 207.550781 108.921875 Z M 212.910156 86.746094 L 202.25 103.621094 L 203.996094 105.367188 Z M 209.371094 82.386719 L 198.90625 100.273438 L 201.40625 102.773438 Z M 209.371094 82.386719 " fill-opacity="1" fill-rule="evenodd"/><path fill="#ffffff" d="M 215.96875 137.191406 L 232.957031 144.171875 L 218.191406 134.972656 Z M 241.78125 172.613281 C 245.046875 172.058594 248.070312 169.78125 250.527344 172.195312 L 241.316406 174.65625 C 240.597656 176.628906 239.714844 178.507812 238.691406 180.285156 C 234.035156 188.351562 226.382812 194.371094 217.269531 196.933594 C 206.820312 199.875 195.640625 197.921875 186.828125 191.714844 C 194.28125 188.792969 201.269531 184.941406 207.660156 180.292969 C 208.210938 179.894531 208.75 179.496094 209.28125 179.089844 C 218.484375 172.09375 226.371094 163.410156 232.480469 153.417969 C 217.453125 164.855469 199.363281 171.550781 180.507812 172.648438 C 183.554688 174.320312 185.78125 177.179688 186.65625 180.546875 C 187.53125 183.914062 186.976562 187.496094 185.132812 190.441406 C 195.789062 206.277344 215.375 213.515625 233.765625 208.417969 C 252.15625 203.332031 265.222656 187.046875 266.21875 167.984375 L 259.007812 169.917969 C 259.667969 166.378906 264.183594 166.636719 267.425781 165.011719 C 269.054688 154.835938 265.105469 147.027344 255.578125 141.589844 C 251.378906 138.652344 247.597656 135.164062 244.347656 131.214844 C 242.785156 130.097656 240.78125 129.820312 238.980469 130.453125 C 237.171875 131.09375 235.796875 132.574219 235.285156 134.417969 C 235.203125 137.925781 235.839844 142.570312 237.183594 148.34375 C 233.375 156.859375 233.183594 163.761719 236.613281 169.066406 C 238.828125 169.308594 240.761719 170.640625 241.78125 172.613281 Z M 264.816406 155.285156 C 257.808594 155.296875 251.800781 150.28125 250.566406 143.386719 L 252.882812 146.238281 C 254.433594 145.777344 256.105469 146.085938 257.386719 147.050781 C 258.675781 148.023438 259.429688 149.550781 259.417969 151.15625 C 260.511719 153.269531 262.492188 154.785156 264.816406 155.285156 Z M 244.128906 156.574219 C 243.882812 159.742188 242.34375 162.671875 239.890625 164.695312 C 241.214844 163.320312 241.34375 161.191406 240.1875 159.679688 C 238.664062 158.988281 237.742188 157.414062 237.859375 155.75 C 237.988281 154.082031 239.140625 152.667969 240.75 152.210938 L 241.234375 147.878906 C 243.339844 150.257812 244.386719 153.398438 244.128906 156.574219 Z M 232.226562 182.5625 C 231.621094 184.8125 230.753906 186.992188 229.644531 189.054688 C 232.171875 186.898438 234.300781 184.3125 235.9375 181.425781 C 234.726562 181.875 233.484375 182.25 232.226562 182.5625 Z M 227.296875 183.5625 C 225.917969 187.917969 223.121094 191.746094 219.285156 194.386719 C 224.273438 192.003906 228.289062 187.972656 230.664062 182.984375 C 229.550781 183.234375 228.425781 183.425781 227.296875 183.5625 Z M 221.710938 183.796875 C 219.585938 188.929688 216.164062 193.433594 211.765625 196.859375 C 217.480469 194.046875 222.105469 189.441406 224.960938 183.769531 C 223.875 183.824219 222.792969 183.839844 221.710938 183.796875 Z M 216.871094 183.277344 C 214.921875 187.234375 211.390625 193.441406 204.664062 195.425781 C 212.5 194.882812 216.585938 189.535156 219.226562 183.617188 C 218.445312 183.53125 217.652344 183.417969 216.871094 183.277344 Z M 212.308594 182.148438 C 210.289062 186.03125 206.894531 191.183594 200.003906 193.566406 C 207.925781 192.277344 210.371094 188.777344 214.871094 182.863281 C 214.007812 182.65625 213.152344 182.421875 212.308594 182.148438 Z M 208.1875 180.542969 C 204.628906 185.019531 199.941406 188.507812 194.554688 190.636719 C 200.828125 189.910156 206.394531 186.4375 209.808594 181.25 C 209.269531 181.027344 208.726562 180.792969 208.1875 180.542969 Z M 189.316406 168.570312 L 186.101562 167.054688 L 184.664062 168.492188 Z M 194.742188 166.660156 L 189.429688 163.71875 L 187.492188 165.660156 Z M 199.675781 165.613281 L 192.238281 160.921875 L 190.46875 162.691406 Z M 205.320312 163.824219 L 194.96875 158.1875 L 193.25 159.910156 Z M 208.058594 161.085938 L 197.800781 155.359375 L 196.226562 156.929688 Z M 212.410156 159.917969 L 201.121094 152.039062 L 199.128906 154.03125 Z M 218.898438 158.90625 L 205 148.160156 L 202.65625 150.5 Z M 224.316406 156.265625 L 208.144531 145.011719 L 205.910156 147.246094 Z M 228.085938 152.605469 L 211.210938 141.945312 L 209.457031 143.691406 Z M 232.441406 149.0625 L 214.558594 138.601562 L 212.058594 141.101562 Z M 232.441406 149.0625 " fill-opacity="1" fill-rule="evenodd"/><path fill="#ffffff" d="M 177.640625 155.664062 L 170.65625 172.652344 L 179.859375 157.882812 Z M 142.210938 181.476562 C 142.773438 184.742188 145.050781 187.765625 142.636719 190.222656 L 140.167969 181.011719 C 138.203125 180.292969 136.324219 179.410156 134.539062 178.386719 C 126.484375 173.730469 120.460938 166.078125 117.898438 156.964844 C 114.957031 146.515625 116.90625 135.332031 123.117188 126.523438 C 126.039062 133.976562 129.890625 140.964844 134.539062 147.363281 C 134.929688 147.902344 135.335938 148.445312 135.742188 148.976562 C 142.738281 158.179688 151.421875 166.066406 161.40625 172.175781 C 149.976562 157.148438 143.28125 139.058594 142.183594 120.203125 C 140.511719 123.253906 137.652344 125.476562 134.285156 126.351562 C 130.917969 127.226562 127.335938 126.679688 124.390625 124.828125 C 108.554688 135.484375 101.316406 155.070312 106.40625 173.460938 C 111.5 191.851562 127.785156 204.917969 146.84375 205.914062 L 144.914062 198.703125 C 148.453125 199.363281 148.195312 203.875 149.820312 207.128906 C 159.996094 208.75 167.804688 204.800781 173.238281 195.273438 C 176.171875 191.078125 179.667969 187.292969 183.617188 184.039062 C 184.734375 182.480469 185.011719 180.480469 184.378906 178.675781 C 183.738281 176.871094 182.257812 175.492188 180.414062 174.980469 C 176.898438 174.898438 172.261719 175.535156 166.484375 176.886719 C 157.972656 173.070312 151.0625 172.886719 145.765625 176.308594 C 145.519531 178.523438 144.179688 180.457031 142.210938 181.476562 Z M 159.539062 204.511719 C 159.53125 197.503906 164.550781 191.5 171.445312 190.261719 L 168.589844 192.582031 C 169.046875 194.125 168.746094 195.800781 167.78125 197.089844 C 166.808594 198.371094 165.28125 199.125 163.667969 199.109375 C 161.5625 200.207031 160.046875 202.1875 159.539062 204.511719 Z M 158.257812 183.832031 C 155.089844 183.578125 152.160156 182.039062 150.136719 179.585938 C 151.511719 180.910156 153.640625 181.039062 155.152344 179.882812 C 155.84375 178.359375 157.40625 177.433594 159.082031 177.554688 C 160.746094 177.683594 162.160156 178.835938 162.613281 180.445312 L 166.945312 180.929688 C 164.570312 183.035156 161.433594 184.082031 158.257812 183.832031 Z M 132.265625 171.921875 C 130.019531 171.316406 127.839844 170.449219 125.777344 169.339844 C 127.933594 171.867188 130.507812 173.996094 133.40625 175.632812 C 132.957031 174.421875 132.582031 173.183594 132.265625 171.921875 Z M 131.269531 166.992188 C 126.914062 165.613281 123.085938 162.8125 120.445312 158.980469 C 122.828125 163.96875 126.855469 167.984375 131.847656 170.359375 C 131.597656 169.246094 131.40625 168.121094 131.269531 166.992188 Z M 131.035156 161.402344 C 125.898438 159.28125 121.390625 155.859375 117.96875 151.460938 C 120.785156 157.175781 125.390625 161.800781 131.0625 164.65625 C 131 163.570312 130.992188 162.488281 131.035156 161.402344 Z M 131.550781 156.574219 C 127.597656 154.617188 121.390625 151.085938 119.40625 144.359375 C 119.949219 152.195312 125.292969 156.28125 131.214844 158.925781 C 131.300781 158.140625 131.414062 157.347656 131.550781 156.574219 Z M 132.679688 152.003906 C 128.800781 149.984375 123.648438 146.585938 121.265625 139.699219 C 122.554688 147.621094 126.054688 150.066406 131.96875 154.566406 C 132.175781 153.703125 132.410156 152.847656 132.679688 152.003906 Z M 134.285156 147.882812 C 129.8125 144.324219 126.3125 139.632812 124.1875 134.25 C 124.921875 140.523438 128.394531 146.085938 133.582031 149.503906 C 133.804688 148.964844 134.039062 148.421875 134.285156 147.882812 Z M 146.257812 129.011719 L 147.777344 125.792969 L 146.339844 124.359375 Z M 148.171875 134.4375 L 151.105469 129.125 L 149.167969 127.1875 Z M 149.21875 139.371094 L 153.910156 131.933594 L 152.140625 130.160156 Z M 151.007812 145.015625 L 156.640625 134.664062 L 154.921875 132.941406 Z M 153.75 147.753906 L 159.476562 137.496094 L 157.902344 135.921875 Z M 154.914062 152.105469 L 162.792969 140.816406 L 160.800781 138.824219 Z M 155.925781 158.59375 L 166.671875 144.695312 L 164.332031 142.351562 Z M 158.566406 164.007812 L 169.820312 147.839844 L 167.585938 145.605469 Z M 162.226562 167.78125 L 172.886719 150.90625 L 171.132812 149.160156 Z M 165.765625 172.136719 L 176.230469 154.253906 L 173.730469 151.753906 Z M 165.765625 172.136719 " fill-opacity="1" fill-rule="evenodd"/><g fill="#ffffff" fill-opacity="1"><g transform="translate(63.737924, 291.107105)"><g><path d="M 31.828125 -48.515625 L 19.21875 -48.515625 L 19.21875 -61.109375 C 19.21875 -63.222656 18.523438 -64.28125 17.140625 -64.28125 C 15.867188 -64.28125 15.234375 -63.222656 15.234375 -61.109375 L 15.234375 -12.421875 C 15.234375 -10.367188 15.925781 -9.34375 17.3125 -9.34375 C 18.039062 -9.34375 18.539062 -9.566406 18.8125 -10.015625 C 19.082031 -10.472656 19.21875 -11.273438 19.21875 -12.421875 L 19.21875 -31.1875 L 31.828125 -31.1875 L 31.828125 -14.234375 C 31.828125 -7.828125 30.953125 -3.75 29.203125 -2 C 27.441406 -0.363281 23.507812 0.453125 17.40625 0.453125 C 11.0625 0.453125 7.039062 -0.363281 5.34375 -2 C 3.59375 -3.75 2.71875 -7.828125 2.71875 -14.234375 L 2.71875 -59.390625 C 2.71875 -65.921875 3.566406 -70 5.265625 -71.625 C 6.953125 -73.257812 10.941406 -74.078125 17.234375 -74.078125 C 23.578125 -74.078125 27.59375 -73.234375 29.28125 -71.546875 C 30.976562 -69.847656 31.828125 -65.796875 31.828125 -59.390625 Z M 31.828125 -48.515625 "/></g></g></g><g fill="#ffffff" fill-opacity="1"><g transform="translate(99.186721, 291.107105)"><g><path d="M 15.234375 -12.421875 C 15.234375 -10.367188 15.925781 -9.34375 17.3125 -9.34375 C 18.039062 -9.34375 18.539062 -9.566406 18.8125 -10.015625 C 19.082031 -10.472656 19.21875 -11.273438 19.21875 -12.421875 L 19.21875 -61.109375 C 19.21875 -63.222656 18.523438 -64.28125 17.140625 -64.28125 C 15.867188 -64.28125 15.234375 -63.222656 15.234375 -61.109375 Z M 2.71875 -59.390625 C 2.71875 -65.921875 3.566406 -70 5.265625 -71.625 C 6.953125 -73.257812 10.941406 -74.078125 17.234375 -74.078125 C 23.578125 -74.078125 27.59375 -73.234375 29.28125 -71.546875 C 30.976562 -69.847656 31.828125 -65.796875 31.828125 -59.390625 L 31.828125 -14.234375 C 31.828125 -7.828125 30.953125 -3.75 29.203125 -2 C 27.441406 -0.363281 23.507812 0.453125 17.40625 0.453125 C 11.0625 0.453125 7.039062 -0.363281 5.34375 -2 C 3.59375 -3.75 2.71875 -7.828125 2.71875 -14.234375 Z M 2.71875 -59.390625 "/></g></g></g><g fill="#ffffff" fill-opacity="1"><g transform="translate(135.088818, 291.107105)"><g><path d="M 15.78125 -9.703125 C 16.019531 -9.640625 16.410156 -9.609375 16.953125 -9.609375 C 17.984375 -9.609375 18.707031 -9.847656 19.125 -10.328125 C 19.550781 -10.816406 19.765625 -11.664062 19.765625 -12.875 L 19.765625 -31.09375 C 19.765625 -33.21875 18.796875 -34.28125 16.859375 -34.28125 C 16.742188 -34.28125 16.5625 -34.265625 16.3125 -34.234375 C 16.070312 -34.203125 15.894531 -34.1875 15.78125 -34.1875 Z M 15.78125 -44.96875 C 15.894531 -44.96875 16.070312 -44.953125 16.3125 -44.921875 C 16.5625 -44.890625 16.742188 -44.875 16.859375 -44.875 C 17.890625 -44.875 18.628906 -45.113281 19.078125 -45.59375 C 19.535156 -46.082031 19.765625 -46.929688 19.765625 -48.140625 L 19.765625 -60.9375 C 19.765625 -62.988281 18.890625 -64.015625 17.140625 -64.015625 L 15.78125 -64.015625 Z M 18.671875 -73.625 C 23.929688 -73.625 27.53125 -72.71875 29.46875 -70.90625 C 31.34375 -69.207031 32.28125 -65.757812 32.28125 -60.5625 L 32.28125 -50.859375 C 32.28125 -47.660156 31.84375 -45.226562 30.96875 -43.5625 C 30.09375 -41.90625 28.6875 -40.65625 26.75 -39.8125 C 28.738281 -38.894531 30.15625 -37.617188 31 -35.984375 C 31.851562 -34.359375 32.28125 -31.820312 32.28125 -28.375 L 32.28125 -14.875 C 32.28125 -8.46875 31.3125 -4.382812 29.375 -2.625 C 27.4375 -0.875 23.476562 0 17.5 0 L 3.171875 0 L 3.171875 -73.625 Z M 18.671875 -73.625 "/></g></g></g><g fill="#ffffff" fill-opacity="1"><g transform="translate(171.716197, 291.107105)"><g><path d="M 15.78125 -41.53125 C 15.894531 -41.53125 16.070312 -41.515625 16.3125 -41.484375 C 16.5625 -41.453125 16.742188 -41.4375 16.859375 -41.4375 C 17.953125 -41.4375 18.707031 -41.691406 19.125 -42.203125 C 19.550781 -42.722656 19.765625 -43.738281 19.765625 -45.25 L 19.765625 -59.390625 C 19.765625 -61.566406 19.550781 -62.878906 19.125 -63.328125 C 18.707031 -63.785156 17.863281 -64.015625 16.59375 -64.015625 L 15.78125 -64.015625 Z M 18.59375 -73.625 C 24.09375 -73.625 27.75 -72.6875 29.5625 -70.8125 C 31.375 -69 32.28125 -64.953125 32.28125 -58.671875 L 32.28125 -49.046875 C 32.28125 -45.054688 31.859375 -42.15625 31.015625 -40.34375 C 30.222656 -38.71875 28.738281 -37.390625 26.5625 -36.359375 C 28.625 -35.578125 30.09375 -34.351562 30.96875 -32.6875 C 31.84375 -31.019531 32.28125 -28.46875 32.28125 -25.03125 L 32.28125 0 L 19.765625 0 L 19.765625 -27.296875 C 19.765625 -28.503906 19.519531 -29.363281 19.03125 -29.875 C 18.550781 -30.382812 17.800781 -30.640625 16.78125 -30.640625 C 16.65625 -30.640625 16.484375 -30.625 16.265625 -30.59375 C 16.054688 -30.570312 15.894531 -30.5625 15.78125 -30.5625 L 15.78125 0 L 3.171875 0 L 3.171875 -73.625 Z M 18.59375 -73.625 "/></g></g></g><g fill="#ffffff" fill-opacity="1"><g transform="translate(208.343581, 291.107105)"><g><path d="M 14.953125 -25.484375 L 19.21875 -25.484375 L 17.3125 -59.03125 L 16.953125 -59.03125 Z M 25.484375 -73.625 L 32.90625 0 L 20.671875 0 L 19.765625 -15.6875 L 14.5 -15.6875 L 13.59375 0 L 1.453125 0 L 8.703125 -73.625 Z M 25.484375 -73.625 "/></g></g></g><g fill="#ffffff" fill-opacity="1"><g transform="translate(244.336348, 291.107105)"><g><path d="M 12.421875 -30.921875 L 17.234375 -30.921875 L 17.234375 -60.5625 L 16.328125 -60.5625 Z M 29.203125 -73.625 L 29.203125 -30.921875 L 32.640625 -30.921875 L 32.640625 -21.21875 L 29.203125 -21.21875 L 29.203125 0 L 16.859375 0 L 16.859375 -21.21875 L 1.09375 -21.21875 L 1.09375 -30.921875 L 10.609375 -73.625 Z M 29.203125 -73.625 "/></g></g></g><g fill="#ffffff" fill-opacity="1"><g transform="translate(280.238439, 291.107105)"><g><path d="M 28.015625 -73.625 L 28.015625 -64.015625 L 16.59375 0 L 3.71875 0 L 15.421875 -64.015625 L 2.984375 -64.015625 L 2.984375 -73.625 Z M 28.015625 -73.625 "/></g></g></g><g fill="#b7b7b7" fill-opacity="1"><g transform="translate(59.334964, 318.676467)"><g><path d="M 9.183594 -8.449219 L 10.851562 -8.449219 L 10.851562 -13.984375 L 9.183594 -15.566406 Z M 2.78125 -13.742188 L 1.113281 -13.742188 L 1.113281 -8.449219 L 2.78125 -8.449219 Z M 1.113281 -13.984375 L 8.9375 -13.984375 L 8.9375 -15.566406 L 2.78125 -15.566406 Z M 1.113281 -6.648438 L 10.851562 -6.648438 L 10.851562 -8.226562 L 1.113281 -8.226562 Z M 9.183594 0 L 10.851562 0 L 10.851562 -6.402344 L 9.183594 -6.402344 Z M 2.78125 -6.402344 L 1.113281 -6.402344 L 1.113281 0 L 2.78125 0 Z M 2.78125 -6.402344 "/></g></g></g><g fill="#b7b7b7" fill-opacity="1"><g transform="translate(77.959692, 318.676467)"><g><path d="M 1.113281 0 L 2.78125 0 L 2.78125 -15.566406 L 1.113281 -15.566406 Z M 3.136719 -6.449219 L 9.785156 -0.0234375 L 10.894531 -1.199219 L 4.292969 -7.605469 Z M 3 -6.558594 L 11.007812 -14.453125 L 9.804688 -15.566406 L 3 -8.871094 Z M 3 -6.558594 "/></g></g></g><g fill="#b7b7b7" fill-opacity="1"><g transform="translate(96.739961, 318.676467)"><g><path d="M 2.757812 -15.566406 L 1.089844 -15.566406 L 1.089844 -6.714844 L 2.757812 -5.136719 Z M 2.980469 -5.136719 L 8.738281 -5.136719 L 8.738281 -6.714844 L 2.980469 -6.714844 Z M 8.960938 0 L 10.628906 0 L 10.628906 -15.566406 L 8.960938 -15.566406 Z M 8.960938 0 "/></g></g></g><g fill="#b7b7b7" fill-opacity="1"><g transform="translate(115.142495, 318.676467)"><g><path d="M 1.113281 -13.984375 L 8.738281 -13.984375 L 8.738281 -15.566406 L 1.113281 -15.566406 Z M 8.960938 0 L 10.628906 0 L 10.628906 -13.984375 L 8.960938 -15.566406 Z M 8.960938 0 "/></g></g></g><g fill="#b7b7b7" fill-opacity="1"><g transform="translate(133.545029, 318.676467)"><g><path d="M 1.113281 0 L 2.78125 0 L 2.78125 -15.566406 L 1.113281 -15.566406 Z M 3.136719 -6.449219 L 9.785156 -0.0234375 L 10.894531 -1.199219 L 4.292969 -7.605469 Z M 3 -6.558594 L 11.007812 -14.453125 L 9.804688 -15.566406 L 3 -8.871094 Z M 3 -6.558594 "/></g></g></g><g fill="#b7b7b7" fill-opacity="1"><g transform="translate(152.325293, 318.676467)"><g><path d="M 6.203125 -13.742188 L 4.535156 -13.742188 L 4.535156 -1.824219 L 6.203125 -1.824219 Z M 1.113281 -13.964844 L 9.738281 -13.964844 L 9.738281 -15.566406 L 1.113281 -15.566406 Z M 1.113281 0 L 9.738281 0 L 9.738281 -1.601562 L 1.113281 -1.601562 Z M 1.113281 0 "/></g></g></g><g fill="#b7b7b7" fill-opacity="1"><g transform="translate(169.839029, 318.676467)"><g><path d="M 1.113281 0 L 2.78125 0 L 2.78125 -15.566406 L 1.113281 -15.566406 Z M 3 0 L 11.363281 0 L 11.363281 -1.578125 L 3 -1.578125 Z M 3 0 "/></g></g></g><g fill="#b7b7b7" fill-opacity="1"><g transform="translate(188.974792, 318.676467)"><g><path d="M 1.113281 0 L 2.78125 0 L 2.78125 -15.566406 L 1.113281 -15.566406 Z M 3 0 L 11.363281 0 L 11.363281 -1.578125 L 3 -1.578125 Z M 3 0 "/></g></g></g><g fill="#b7b7b7" fill-opacity="1"><g transform="translate(208.110555, 318.676467)"><g><path d="M 9.183594 -8.449219 L 10.851562 -8.449219 L 10.851562 -13.984375 L 9.183594 -15.566406 Z M 2.78125 -13.742188 L 1.113281 -13.742188 L 1.113281 -8.449219 L 2.78125 -8.449219 Z M 1.113281 -13.984375 L 8.9375 -13.984375 L 8.9375 -15.566406 L 2.78125 -15.566406 Z M 1.113281 -6.648438 L 10.851562 -6.648438 L 10.851562 -8.226562 L 1.113281 -8.226562 Z M 9.183594 0 L 10.851562 0 L 10.851562 -6.402344 L 9.183594 -6.402344 Z M 2.78125 -6.402344 L 1.113281 -6.402344 L 1.113281 0 L 2.78125 0 Z M 2.78125 -6.402344 "/></g></g></g><g fill="#b7b7b7" fill-opacity="1"><g transform="translate(226.735278, 318.676467)"><g><path d="M 11.453125 -1.578125 L 3 -1.578125 L 3 0 L 11.453125 0 Z M 11.429688 -15.566406 L 2.78125 -15.566406 L 1.113281 -13.984375 L 11.429688 -13.984375 Z M 2.78125 -13.765625 L 1.113281 -13.765625 L 1.113281 -1.578125 L 2.78125 0 Z M 2.78125 -13.765625 "/></g></g></g><g fill="#b7b7b7" fill-opacity="1"><g transform="translate(245.959929, 318.676467)"><g><path d="M 9.851562 -1.824219 L 11.519531 -1.824219 L 11.519531 -13.898438 L 9.851562 -15.566406 Z M 2.78125 -13.742188 L 1.113281 -13.742188 L 1.113281 -1.667969 L 2.78125 0 Z M 1.113281 -13.984375 L 9.605469 -13.984375 L 9.605469 -15.566406 L 2.824219 -15.566406 Z M 11.519531 -1.578125 L 3.023438 -1.578125 L 3.023438 0 L 9.804688 0 Z M 11.519531 -1.578125 "/></g></g></g><g fill="#b7b7b7" fill-opacity="1"><g transform="translate(265.251233, 318.676467)"><g><path d="M 9.785156 -1.800781 L 11.453125 -1.800781 L 11.453125 -7.40625 L 10.605469 -8.203125 L 11.453125 -8.984375 L 11.453125 -13.984375 L 9.785156 -15.566406 L 9.785156 -9.003906 L 3 -9.003906 L 3 -7.425781 L 9.785156 -7.425781 Z M 1.113281 -1.777344 L 2.78125 -1.777344 L 2.78125 -13.765625 L 1.113281 -13.765625 Z M 1.132812 0 L 9.785156 0 L 11.453125 -1.578125 L 1.132812 -1.578125 Z M 1.113281 -13.984375 L 9.5625 -13.984375 L 9.5625 -15.566406 L 1.113281 -15.566406 Z M 1.113281 -13.984375 "/></g></g></g><g fill="#b7b7b7" fill-opacity="1"><g transform="translate(284.475885, 318.676467)"><g><path d="M 11.164062 0 L 5.671875 -7.203125 L 3.558594 -7.203125 L 9.117188 0 Z M 1.113281 0 L 2.78125 0 L 2.78125 -13.765625 L 1.113281 -13.765625 Z M 1.113281 -13.984375 L 9.5625 -13.984375 L 9.5625 -15.566406 L 1.113281 -15.566406 Z M 3.535156 -7.425781 L 9.785156 -7.425781 L 11.453125 -9.003906 L 5.203125 -9.003906 Z M 9.785156 -9.226562 L 11.453125 -9.226562 L 11.453125 -13.984375 L 9.785156 -15.566406 Z M 9.785156 -9.226562 "/></g></g></g><g fill="#b7b7b7" fill-opacity="1"><g transform="translate(303.700536, 318.676467)"><g><path d="M 9.183594 -8.449219 L 10.851562 -8.449219 L 10.851562 -13.984375 L 9.183594 -15.566406 Z M 2.78125 -13.742188 L 1.113281 -13.742188 L 1.113281 -8.449219 L 2.78125 -8.449219 Z M 1.113281 -13.984375 L 8.9375 -13.984375 L 8.9375 -15.566406 L 2.78125 -15.566406 Z M 1.113281 -6.648438 L 10.851562 -6.648438 L 10.851562 -8.226562 L 1.113281 -8.226562 Z M 9.183594 0 L 10.851562 0 L 10.851562 -6.402344 L 9.183594 -6.402344 Z M 2.78125 -6.402344 L 1.113281 -6.402344 L 1.113281 0 L 2.78125 0 Z M 2.78125 -6.402344 "/></g></g></g></svg>